<svg width="1024" height="512" viewBox="0 0 300 300" xmlns="http://www.w3.org/2000/svg" version="1.1"
  >
   <style>
      .LR {fill: #EC34C4;}
      .R {fill: #DC0000;}
      .DR {fill: #960000;}
      .O {fill: #EC8048;}
      .DO {fill: #B84C00;}
      .LY {fill: #F9F5C8;}
      .Y {fill: #FFFF00;}
      .DY {fill: #BC8C00;}
      .LG {fill: #86C67C;}
      .G {fill: #008B00;}
      .DG {fill: #004028;}
      .LB {fill: #82CFFD;}
      .B {fill: #0000FF;}
      .DB {fill: #000080;}
      .LP {fill: #C49CD8;}
      .P {fill: #AA00FF;}
      .DP {fill: #440044;}
      .W {fill: #FFFFFF;}
      .LN {fill: #E0E0E0;}
      .N {fill: #C8C8C8;}
      .DN {fill: #5C5C5C;}
      .K {fill: #101010;}
      .LT {fill: #A08858;}
      .T {fill: #98481C;}
      .DT {fill: #4C3428;}

  </style>
  <desc id="svg_threadcount"></desc>
  <g id="patterns"><pattern id="warp" width="104" height="2" patternUnits="userSpaceOnUse"><rect class="B" x="0" width="1" height="1" y="0"></rect><rect class="B" x="1" width="1" height="1" y="1"></rect><rect class="B" x="2" width="1" height="1" y="0"></rect><rect class="B" x="3" width="1" height="1" y="1"></rect><rect class="B" x="4" width="1" height="1" y="0"></rect><rect class="B" x="5" width="1" height="1" y="1"></rect><rect class="B" x="6" width="1" height="1" y="0"></rect><rect class="B" x="7" width="1" height="1" y="1"></rect><rect class="B" x="8" width="1" height="1" y="0"></rect><rect class="B" x="9" width="1" height="1" y="1"></rect><rect class="B" x="10" width="1" height="1" y="0"></rect><rect class="B" x="11" width="1" height="1" y="1"></rect><rect class="B" x="12" width="1" height="1" y="0"></rect><rect class="B" x="13" width="1" height="1" y="1"></rect><rect class="B" x="14" width="1" height="1" y="0"></rect><rect class="B" x="15" width="1" height="1" y="1"></rect><rect class="B" x="16" width="1" height="1" y="0"></rect><rect class="B" x="17" width="1" height="1" y="1"></rect><rect class="B" x="18" width="1" height="1" y="0"></rect><rect class="B" x="19" width="1" height="1" y="1"></rect><rect class="B" x="20" width="1" height="1" y="0"></rect><rect class="B" x="21" width="1" height="1" y="1"></rect><rect class="B" x="22" width="1" height="1" y="0"></rect><rect class="B" x="23" width="1" height="1" y="1"></rect><rect class="W" x="24" width="1" height="1" y="0"></rect><rect class="W" x="25" width="1" height="1" y="1"></rect><rect class="W" x="26" width="1" height="1" y="0"></rect><rect class="W" x="27" width="1" height="1" y="1"></rect><rect class="B" x="28" width="1" height="1" y="0"></rect><rect class="B" x="29" width="1" height="1" y="1"></rect><rect class="B" x="30" width="1" height="1" y="0"></rect><rect class="B" x="31" width="1" height="1" y="1"></rect><rect class="B" x="32" width="1" height="1" y="0"></rect><rect class="B" x="33" width="1" height="1" y="1"></rect><rect class="B" x="34" width="1" height="1" y="0"></rect><rect class="B" x="35" width="1" height="1" y="1"></rect><rect class="B" x="36" width="1" height="1" y="0"></rect><rect class="B" x="37" width="1" height="1" y="1"></rect><rect class="B" x="38" width="1" height="1" y="0"></rect><rect class="B" x="39" width="1" height="1" y="1"></rect><rect class="B" x="40" width="1" height="1" y="0"></rect><rect class="B" x="41" width="1" height="1" y="1"></rect><rect class="B" x="42" width="1" height="1" y="0"></rect><rect class="B" x="43" width="1" height="1" y="1"></rect><rect class="B" x="44" width="1" height="1" y="0"></rect><rect class="B" x="45" width="1" height="1" y="1"></rect><rect class="B" x="46" width="1" height="1" y="0"></rect><rect class="B" x="47" width="1" height="1" y="1"></rect><rect class="B" x="48" width="1" height="1" y="0"></rect><rect class="B" x="49" width="1" height="1" y="1"></rect><rect class="B" x="50" width="1" height="1" y="0"></rect><rect class="B" x="51" width="1" height="1" y="1"></rect><rect class="R" x="52" width="1" height="1" y="0"></rect><rect class="R" x="53" width="1" height="1" y="1"></rect><rect class="K" x="54" width="1" height="1" y="0"></rect><rect class="K" x="55" width="1" height="1" y="1"></rect><rect class="K" x="56" width="1" height="1" y="0"></rect><rect class="K" x="57" width="1" height="1" y="1"></rect><rect class="K" x="58" width="1" height="1" y="0"></rect><rect class="K" x="59" width="1" height="1" y="1"></rect><rect class="K" x="60" width="1" height="1" y="0"></rect><rect class="K" x="61" width="1" height="1" y="1"></rect><rect class="K" x="62" width="1" height="1" y="0"></rect><rect class="K" x="63" width="1" height="1" y="1"></rect><rect class="K" x="64" width="1" height="1" y="0"></rect><rect class="K" x="65" width="1" height="1" y="1"></rect><rect class="K" x="66" width="1" height="1" y="0"></rect><rect class="K" x="67" width="1" height="1" y="1"></rect><rect class="K" x="68" width="1" height="1" y="0"></rect><rect class="K" x="69" width="1" height="1" y="1"></rect><rect class="K" x="70" width="1" height="1" y="0"></rect><rect class="K" x="71" width="1" height="1" y="1"></rect><rect class="K" x="72" width="1" height="1" y="0"></rect><rect class="K" x="73" width="1" height="1" y="1"></rect><rect class="K" x="74" width="1" height="1" y="0"></rect><rect class="K" x="75" width="1" height="1" y="1"></rect><rect class="K" x="76" width="1" height="1" y="0"></rect><rect class="K" x="77" width="1" height="1" y="1"></rect><rect class="G" x="78" width="1" height="1" y="0"></rect><rect class="G" x="79" width="1" height="1" y="1"></rect><rect class="G" x="80" width="1" height="1" y="0"></rect><rect class="G" x="81" width="1" height="1" y="1"></rect><rect class="G" x="82" width="1" height="1" y="0"></rect><rect class="G" x="83" width="1" height="1" y="1"></rect><rect class="G" x="84" width="1" height="1" y="0"></rect><rect class="G" x="85" width="1" height="1" y="1"></rect><rect class="G" x="86" width="1" height="1" y="0"></rect><rect class="G" x="87" width="1" height="1" y="1"></rect><rect class="G" x="88" width="1" height="1" y="0"></rect><rect class="G" x="89" width="1" height="1" y="1"></rect><rect class="G" x="90" width="1" height="1" y="0"></rect><rect class="G" x="91" width="1" height="1" y="1"></rect><rect class="G" x="92" width="1" height="1" y="0"></rect><rect class="G" x="93" width="1" height="1" y="1"></rect><rect class="G" x="94" width="1" height="1" y="0"></rect><rect class="G" x="95" width="1" height="1" y="1"></rect><rect class="G" x="96" width="1" height="1" y="0"></rect><rect class="G" x="97" width="1" height="1" y="1"></rect><rect class="G" x="98" width="1" height="1" y="0"></rect><rect class="G" x="99" width="1" height="1" y="1"></rect><rect class="G" x="100" width="1" height="1" y="0"></rect><rect class="G" x="101" width="1" height="1" y="1"></rect><rect class="W" x="102" width="1" height="1" y="0"></rect><rect class="W" x="103" width="1" height="1" y="1"></rect></pattern>
      <pattern id="weft" width="2" height="104" patternUnits="userSpaceOnUse"><rect class="B" x="1" width="1" height="1" y="0"></rect><rect class="B" x="0" width="1" height="1" y="1"></rect><rect class="B" x="1" width="1" height="1" y="2"></rect><rect class="B" x="0" width="1" height="1" y="3"></rect><rect class="B" x="1" width="1" height="1" y="4"></rect><rect class="B" x="0" width="1" height="1" y="5"></rect><rect class="B" x="1" width="1" height="1" y="6"></rect><rect class="B" x="0" width="1" height="1" y="7"></rect><rect class="B" x="1" width="1" height="1" y="8"></rect><rect class="B" x="0" width="1" height="1" y="9"></rect><rect class="B" x="1" width="1" height="1" y="10"></rect><rect class="B" x="0" width="1" height="1" y="11"></rect><rect class="B" x="1" width="1" height="1" y="12"></rect><rect class="B" x="0" width="1" height="1" y="13"></rect><rect class="B" x="1" width="1" height="1" y="14"></rect><rect class="B" x="0" width="1" height="1" y="15"></rect><rect class="B" x="1" width="1" height="1" y="16"></rect><rect class="B" x="0" width="1" height="1" y="17"></rect><rect class="B" x="1" width="1" height="1" y="18"></rect><rect class="B" x="0" width="1" height="1" y="19"></rect><rect class="B" x="1" width="1" height="1" y="20"></rect><rect class="B" x="0" width="1" height="1" y="21"></rect><rect class="B" x="1" width="1" height="1" y="22"></rect><rect class="B" x="0" width="1" height="1" y="23"></rect><rect class="W" x="1" width="1" height="1" y="24"></rect><rect class="W" x="0" width="1" height="1" y="25"></rect><rect class="W" x="1" width="1" height="1" y="26"></rect><rect class="W" x="0" width="1" height="1" y="27"></rect><rect class="B" x="1" width="1" height="1" y="28"></rect><rect class="B" x="0" width="1" height="1" y="29"></rect><rect class="B" x="1" width="1" height="1" y="30"></rect><rect class="B" x="0" width="1" height="1" y="31"></rect><rect class="B" x="1" width="1" height="1" y="32"></rect><rect class="B" x="0" width="1" height="1" y="33"></rect><rect class="B" x="1" width="1" height="1" y="34"></rect><rect class="B" x="0" width="1" height="1" y="35"></rect><rect class="B" x="1" width="1" height="1" y="36"></rect><rect class="B" x="0" width="1" height="1" y="37"></rect><rect class="B" x="1" width="1" height="1" y="38"></rect><rect class="B" x="0" width="1" height="1" y="39"></rect><rect class="B" x="1" width="1" height="1" y="40"></rect><rect class="B" x="0" width="1" height="1" y="41"></rect><rect class="B" x="1" width="1" height="1" y="42"></rect><rect class="B" x="0" width="1" height="1" y="43"></rect><rect class="B" x="1" width="1" height="1" y="44"></rect><rect class="B" x="0" width="1" height="1" y="45"></rect><rect class="B" x="1" width="1" height="1" y="46"></rect><rect class="B" x="0" width="1" height="1" y="47"></rect><rect class="B" x="1" width="1" height="1" y="48"></rect><rect class="B" x="0" width="1" height="1" y="49"></rect><rect class="B" x="1" width="1" height="1" y="50"></rect><rect class="B" x="0" width="1" height="1" y="51"></rect><rect class="R" x="1" width="1" height="1" y="52"></rect><rect class="R" x="0" width="1" height="1" y="53"></rect><rect class="K" x="1" width="1" height="1" y="54"></rect><rect class="K" x="0" width="1" height="1" y="55"></rect><rect class="K" x="1" width="1" height="1" y="56"></rect><rect class="K" x="0" width="1" height="1" y="57"></rect><rect class="K" x="1" width="1" height="1" y="58"></rect><rect class="K" x="0" width="1" height="1" y="59"></rect><rect class="K" x="1" width="1" height="1" y="60"></rect><rect class="K" x="0" width="1" height="1" y="61"></rect><rect class="K" x="1" width="1" height="1" y="62"></rect><rect class="K" x="0" width="1" height="1" y="63"></rect><rect class="K" x="1" width="1" height="1" y="64"></rect><rect class="K" x="0" width="1" height="1" y="65"></rect><rect class="K" x="1" width="1" height="1" y="66"></rect><rect class="K" x="0" width="1" height="1" y="67"></rect><rect class="K" x="1" width="1" height="1" y="68"></rect><rect class="K" x="0" width="1" height="1" y="69"></rect><rect class="K" x="1" width="1" height="1" y="70"></rect><rect class="K" x="0" width="1" height="1" y="71"></rect><rect class="K" x="1" width="1" height="1" y="72"></rect><rect class="K" x="0" width="1" height="1" y="73"></rect><rect class="K" x="1" width="1" height="1" y="74"></rect><rect class="K" x="0" width="1" height="1" y="75"></rect><rect class="K" x="1" width="1" height="1" y="76"></rect><rect class="K" x="0" width="1" height="1" y="77"></rect><rect class="G" x="1" width="1" height="1" y="78"></rect><rect class="G" x="0" width="1" height="1" y="79"></rect><rect class="G" x="1" width="1" height="1" y="80"></rect><rect class="G" x="0" width="1" height="1" y="81"></rect><rect class="G" x="1" width="1" height="1" y="82"></rect><rect class="G" x="0" width="1" height="1" y="83"></rect><rect class="G" x="1" width="1" height="1" y="84"></rect><rect class="G" x="0" width="1" height="1" y="85"></rect><rect class="G" x="1" width="1" height="1" y="86"></rect><rect class="G" x="0" width="1" height="1" y="87"></rect><rect class="G" x="1" width="1" height="1" y="88"></rect><rect class="G" x="0" width="1" height="1" y="89"></rect><rect class="G" x="1" width="1" height="1" y="90"></rect><rect class="G" x="0" width="1" height="1" y="91"></rect><rect class="G" x="1" width="1" height="1" y="92"></rect><rect class="G" x="0" width="1" height="1" y="93"></rect><rect class="G" x="1" width="1" height="1" y="94"></rect><rect class="G" x="0" width="1" height="1" y="95"></rect><rect class="G" x="1" width="1" height="1" y="96"></rect><rect class="G" x="0" width="1" height="1" y="97"></rect><rect class="G" x="1" width="1" height="1" y="98"></rect><rect class="G" x="0" width="1" height="1" y="99"></rect><rect class="G" x="1" width="1" height="1" y="100"></rect><rect class="G" x="0" width="1" height="1" y="101"></rect><rect class="W" x="1" width="1" height="1" y="102"></rect><rect class="W" x="0" width="1" height="1" y="103"></rect></pattern></g>

<rect x="0" y="0" width="100%" height="100%" fill="url(#warp)"></rect>
<rect x="0" y="0" width="100%" height="100%" fill="url(#weft)"></rect>

</svg>
